<svg width="980" height="228" viewBox="0 0 980 228" fill="none" xmlns="http://www.w3.org/2000/svg">
<path fill-rule="evenodd" clip-rule="evenodd" d="M114.219 72.0439C114.219 65.6995 111.146 60.6933 105.272 60.6933C99.3739 60.6933 95.8052 65.6995 95.8052 71.9944C95.8052 79.4541 100.018 83.2211 106.065 83.2211C109.015 83.2211 111.245 82.5519 112.93 81.6102V76.6536C111.245 77.4962 109.312 78.0166 106.858 78.0166C104.454 78.0166 102.323 77.174 102.051 74.2496H114.169C114.169 73.9274 114.219 72.6387 114.219 72.0439ZM101.976 69.6896C101.976 66.8891 103.686 65.7243 105.248 65.7243C106.759 65.7243 108.37 66.8891 108.37 69.6896H101.976Z" fill="#ADB1C7"/>
<path fill-rule="evenodd" clip-rule="evenodd" d="M86.2388 60.6933C83.81 60.6933 82.2487 61.8333 81.3813 62.6264L81.0591 61.0898H75.6069V89.9868L81.8026 88.6733L81.8274 81.6597C82.7196 82.3041 84.0331 83.2211 86.214 83.2211C90.6501 83.2211 94.6898 79.6523 94.6898 71.7961C94.665 64.609 90.5758 60.6933 86.2388 60.6933ZM84.7518 77.7688C83.2896 77.7688 82.4222 77.2484 81.8274 76.604L81.8026 67.4095C82.447 66.6908 83.3392 66.1951 84.7518 66.1951C87.007 66.1951 88.5684 68.723 88.5684 71.9696C88.5684 75.2905 87.0318 77.7688 84.7518 77.7688Z" fill="#ADB1C7"/>
<path fill-rule="evenodd" clip-rule="evenodd" d="M67.0814 59.2311L73.3019 57.8928V52.8618L67.0814 54.1753V59.2311Z" fill="#ADB1C7"/>
<path d="M73.3019 61.1146H67.0814V82.7997H73.3019V61.1146Z" fill="#ADB1C7"/>
<path fill-rule="evenodd" clip-rule="evenodd" d="M60.4145 62.9485L60.018 61.1146H54.6648V82.7997H60.8606V68.1034C62.3228 66.1951 64.8011 66.542 65.5694 66.8147V61.1146C64.7763 60.8172 61.8767 60.2719 60.4145 62.9485Z" fill="#ADB1C7"/>
<path fill-rule="evenodd" clip-rule="evenodd" d="M48.0232 55.7366L41.9761 57.0253L41.9513 76.8765C41.9513 80.5444 44.7022 83.2458 48.3701 83.2458C50.4023 83.2458 51.8893 82.874 52.7072 82.4279V77.397C51.9141 77.7191 47.9984 78.8592 47.9984 75.1913V66.3933H52.7072V61.1145H47.9984L48.0232 55.7366Z" fill="#ADB1C7"/>
<path fill-rule="evenodd" clip-rule="evenodd" d="M31.2701 67.4095C31.2701 66.443 32.0632 66.0712 33.3767 66.0712C35.2602 66.0712 37.6393 66.6412 39.5228 67.6573V61.8333C37.4659 61.0155 35.4336 60.6933 33.3767 60.6933C28.3457 60.6933 25 63.3203 25 67.7069C25 74.547 34.4175 73.4566 34.4175 76.4057C34.4175 77.5458 33.4262 77.9175 32.0384 77.9175C29.9814 77.9175 27.3544 77.0749 25.2726 75.9349V81.8332C27.5774 82.8245 29.907 83.2459 32.0384 83.2459C37.1932 83.2459 40.7372 80.6932 40.7372 76.257C40.7124 68.8717 31.2701 70.1852 31.2701 67.4095Z" fill="#ADB1C7"/>
<path d="M224 83.2957L235.497 65.4063H225.362C225.276 64.891 225.239 64.3265 225.239 63.7008C225.239 63.0996 225.276 62.5474 225.362 62.0443H241.767L241.975 62.5965L230.393 80.5227H241.251C241.337 81.0871 241.374 81.6761 241.374 82.265C241.374 82.8295 241.337 83.3693 241.251 83.8847H224.209L224 83.2957Z" fill="#ADB1C7"/>
<path d="M257.178 69.4924C257.178 67.8114 256.748 66.658 255.902 65.9955C255.055 65.3452 253.816 65.0139 252.196 65.0139C251.202 65.0139 250.27 65.0875 249.411 65.247C248.54 65.4065 247.705 65.6028 246.871 65.8605C246.331 64.928 246.061 63.7992 246.061 62.4986C247.031 62.1918 248.086 61.9464 249.251 61.7747C250.417 61.6029 251.534 61.517 252.613 61.517C255.448 61.517 257.607 62.1673 259.092 63.4556C260.564 64.744 261.313 66.8176 261.313 69.6519V83.3205C260.319 83.5414 259.116 83.7867 257.693 84.0199C256.27 84.2653 254.822 84.3757 253.35 84.3757C251.963 84.3757 250.699 84.253 249.583 83.9953C248.466 83.7377 247.509 83.3328 246.724 82.7561C245.939 82.1917 245.337 81.4677 244.908 80.5843C244.478 79.7009 244.27 78.6334 244.27 77.3942C244.27 76.1794 244.515 75.0997 245.018 74.1795C245.509 73.2592 246.184 72.4862 247.043 71.885C247.889 71.2715 248.871 70.8175 249.988 70.523C251.092 70.2286 252.258 70.0691 253.485 70.0691C254.392 70.0691 255.141 70.0936 255.718 70.1304C256.294 70.1672 256.785 70.2286 257.19 70.2777V69.4924H257.178ZM257.178 73.6273C256.748 73.566 256.208 73.5169 255.558 73.4555C254.908 73.3942 254.356 73.3697 253.902 73.3697C252.135 73.3697 250.797 73.7009 249.877 74.3512C248.957 75.0015 248.491 75.9954 248.491 77.3328C248.491 78.1794 248.65 78.8543 248.957 79.3328C249.264 79.8113 249.656 80.1794 250.123 80.4371C250.589 80.6947 251.104 80.8543 251.681 80.9033C252.245 80.9647 252.785 80.9892 253.3 80.9892C253.951 80.9892 254.626 80.9524 255.325 80.8788C256.024 80.8052 256.638 80.707 257.178 80.5598V73.6273Z" fill="#ADB1C7"/>
<path d="M265.914 62.0453C266.196 61.9839 266.49 61.9471 266.785 61.9226C267.079 61.898 267.386 61.8858 267.705 61.8858C267.987 61.8858 268.282 61.898 268.601 61.9226C268.908 61.9471 269.214 61.9962 269.497 62.0453C269.521 62.1066 269.558 62.2784 269.607 62.5729C269.644 62.8674 269.693 63.1864 269.73 63.5299C269.767 63.8735 269.816 64.1925 269.852 64.5115C269.889 64.8305 269.914 65.0268 269.914 65.1127C270.196 64.6588 270.54 64.217 270.932 63.7876C271.325 63.3581 271.803 62.9778 272.355 62.6342C272.908 62.2907 273.533 62.0207 274.233 61.8244C274.932 61.6281 275.705 61.5299 276.552 61.5299C277.828 61.5299 279.018 61.7385 280.11 62.168C281.202 62.5974 282.135 63.2477 282.92 64.1434C283.705 65.0391 284.306 66.1802 284.748 67.5544C285.19 68.9287 285.411 70.5605 285.411 72.4378C285.411 76.1924 284.392 79.1249 282.368 81.2353C280.331 83.3457 277.46 84.4132 273.742 84.4132C273.116 84.4132 272.478 84.3764 271.828 84.2905C271.178 84.2046 270.601 84.0942 270.122 83.9469V93.9591C269.779 94.0205 269.423 94.0573 269.03 94.0818C268.65 94.1064 268.294 94.1186 267.987 94.1186C267.681 94.1186 267.325 94.1064 266.944 94.0818C266.564 94.0573 266.208 94.0082 265.902 93.9591V62.0453H265.914ZM270.135 80.3151C270.674 80.5114 271.227 80.6586 271.791 80.7445C272.355 80.8304 273.092 80.8672 274.012 80.8672C275.03 80.8672 275.975 80.7077 276.822 80.3764C277.668 80.0451 278.404 79.5421 279.018 78.8672C279.631 78.1801 280.11 77.3212 280.466 76.2906C280.822 75.2599 280.993 74.0206 280.993 72.6096C280.993 70.3397 280.576 68.536 279.742 67.1986C278.908 65.8612 277.533 65.1986 275.631 65.1986C274.92 65.1986 274.245 65.3213 273.582 65.579C272.932 65.8367 272.343 66.217 271.84 66.7324C271.325 67.2477 270.92 67.8857 270.601 68.671C270.282 69.4563 270.135 70.3765 270.135 71.4562V80.3151Z" fill="#ADB1C7"/>
<path d="M290.662 65.3572H287.889C287.828 65.1241 287.791 64.8664 287.766 64.5719C287.742 64.2775 287.73 63.983 287.73 63.7008C287.73 63.4186 287.742 63.1241 287.766 62.8296C287.791 62.5351 287.84 62.2652 287.889 62.0443H294.797V83.8969C294.49 83.9583 294.134 83.9951 293.754 84.0196C293.374 84.0442 293.018 84.0565 292.711 84.0565C292.429 84.0565 292.098 84.0442 291.705 84.0196C291.325 83.9951 290.969 83.946 290.662 83.8969V65.3572Z" fill="#ADB1C7"/>
<path d="M303.864 74.008C303.926 76.3883 304.539 78.1429 305.717 79.2472C306.895 80.3515 308.637 80.9036 310.932 80.9036C312.944 80.9036 314.87 80.5478 316.686 79.8362C316.919 80.2656 317.104 80.7809 317.239 81.3944C317.386 82.0079 317.459 82.6091 317.496 83.2104C316.564 83.603 315.533 83.9098 314.404 84.1061C313.288 84.3024 312.036 84.4006 310.674 84.4006C308.686 84.4006 306.981 84.1183 305.558 83.5662C304.134 83.0141 302.969 82.2288 302.048 81.2227C301.128 80.2165 300.453 79.0264 300.024 77.6399C299.594 76.2656 299.386 74.7565 299.386 73.1C299.386 71.4804 299.594 69.9712 299.999 68.5602C300.404 67.1491 301.042 65.9344 301.889 64.8915C302.736 63.8608 303.815 63.0265 305.104 62.4253C306.392 61.8118 307.926 61.505 309.68 61.505C311.189 61.505 312.502 61.7627 313.643 62.278C314.785 62.7934 315.729 63.4927 316.502 64.3884C317.263 65.2841 317.852 66.3516 318.245 67.5786C318.637 68.8178 318.846 70.1553 318.846 71.6031C318.846 71.9957 318.834 72.4252 318.797 72.8546C318.772 73.2963 318.735 73.6767 318.711 73.9835H303.864V74.008ZM314.686 70.8546C314.686 70.0571 314.576 69.2964 314.367 68.5725C314.159 67.8485 313.84 67.2228 313.435 66.6829C313.018 66.143 312.502 65.7136 311.864 65.3823C311.226 65.051 310.466 64.8915 309.582 64.8915C307.852 64.8915 306.527 65.4191 305.594 66.462C304.674 67.5172 304.11 68.9774 303.913 70.8546H314.686Z" fill="#ADB1C7"/>
<path d="M323.508 62.0444C323.815 61.983 324.122 61.9462 324.404 61.9217C324.686 61.8971 324.981 61.8848 325.3 61.8848C325.607 61.8848 325.926 61.8971 326.232 61.9217C326.539 61.9462 326.834 61.9953 327.079 62.0444C327.165 62.4738 327.251 63.0259 327.337 63.7253C327.423 64.4247 327.459 65.0137 327.459 65.4922C328.061 64.5229 328.846 63.6885 329.827 62.9769C330.809 62.2652 332.061 61.9094 333.594 61.9094C333.827 61.9094 334.061 61.9217 334.294 61.9339C334.539 61.9462 334.735 61.9707 334.907 61.9953C334.969 62.2529 335.005 62.5229 335.03 62.8051C335.054 63.0873 335.067 63.3818 335.067 63.7008C335.067 64.0443 335.042 64.4002 335.005 64.7683C334.969 65.1364 334.907 65.4922 334.858 65.8357C334.625 65.7744 334.392 65.7498 334.159 65.7498C333.913 65.7498 333.729 65.7498 333.582 65.7498C332.821 65.7498 332.085 65.8603 331.386 66.0689C330.686 66.2774 330.061 66.6578 329.508 67.1977C328.956 67.7376 328.515 68.4737 328.183 69.4185C327.852 70.351 327.692 71.5658 327.692 73.0381V83.8969C327.386 83.9583 327.03 83.9951 326.65 84.0196C326.269 84.0442 325.913 84.0565 325.607 84.0565C325.3 84.0565 324.944 84.0442 324.564 84.0196C324.183 83.9951 323.815 83.946 323.472 83.8969V62.0444H323.508Z" fill="#ADB1C7"/>
<path d="M298.809 49.186H294.686L297.607 46.2658C297.373 45.9468 297.116 45.64 296.846 45.3578C296.564 45.0756 296.269 44.818 295.938 44.5971L293.018 47.5173V43.3947C292.637 43.3333 292.245 43.2965 291.84 43.2965H291.827C291.423 43.2965 291.03 43.3333 290.65 43.3947V47.5173L287.729 44.5971C287.41 44.8302 287.104 45.0879 286.821 45.3578C286.539 45.64 286.294 45.9345 286.061 46.2658L288.993 49.186H284.87C284.87 49.186 284.772 49.959 284.772 50.3639C284.772 50.7688 284.809 51.1615 284.87 51.5418H288.993L286.073 54.4621C286.527 55.1001 287.091 55.6645 287.742 56.1308L290.662 53.2105V57.3332C291.042 57.3946 291.435 57.4314 291.84 57.4314H291.852C292.257 57.4314 292.65 57.3946 293.03 57.3332V53.2105L295.95 56.1308C296.269 55.8976 296.576 55.64 296.858 55.37C297.14 55.0878 297.398 54.7934 297.619 54.4621L294.699 51.5418H298.821C298.883 51.1615 298.919 50.7688 298.919 50.3639V50.3517C298.907 49.959 298.883 49.5664 298.809 49.186ZM293.607 50.3762C293.607 50.9038 293.508 51.4069 293.337 51.8731C292.87 52.0449 292.367 52.1431 291.84 52.1431C291.312 52.1431 290.809 52.0449 290.343 51.8731C290.171 51.4069 290.073 50.9038 290.073 50.3762V50.3639C290.073 49.8363 290.171 49.3333 290.343 48.867C290.809 48.6952 291.312 48.5971 291.84 48.5971C292.367 48.5971 292.87 48.6952 293.337 48.867C293.508 49.3333 293.607 49.8363 293.607 50.3762Z" fill="#ADB1C7"/>
<path fill-rule="evenodd" clip-rule="evenodd" d="M502.935 83.8069C496.571 88.4973 487.348 90.9998 479.406 90.9998C468.271 90.9998 458.247 86.8814 450.663 80.0316C450.067 79.493 450.601 78.7589 451.316 79.1784C459.501 83.9403 469.62 86.8051 480.074 86.8051C487.124 86.8051 494.879 85.3465 502.01 82.3196C503.087 81.862 503.988 83.0251 502.935 83.8069Z" fill="#ADB1C7"/>
<path fill-rule="evenodd" clip-rule="evenodd" d="M505.581 80.78C504.77 79.7409 500.204 80.2891 498.154 80.5322C497.53 80.6084 497.434 80.065 497.997 79.6741C501.634 77.1144 507.602 77.8533 508.298 78.7113C508.993 79.574 508.116 85.5563 504.699 88.4115C504.174 88.8501 503.674 88.6165 503.907 88.035C504.675 86.1187 506.396 81.8239 505.581 80.78Z" fill="#ADB1C7"/>
<path fill-rule="evenodd" clip-rule="evenodd" d="M498.297 61.6036V59.1154C498.297 58.7388 498.583 58.4862 498.927 58.4862H510.066C510.424 58.4862 510.71 58.7436 510.71 59.1154V61.2461C510.705 61.6036 510.405 62.0708 509.871 62.8096L504.098 71.0513C506.243 70.9988 508.508 71.3182 510.452 72.4145C510.891 72.6624 511.01 73.0247 511.043 73.3822V76.0373C511.043 76.3995 510.643 76.8238 510.224 76.6045C506.796 74.8074 502.244 74.612 498.455 76.6236C498.068 76.8333 497.663 76.4138 497.663 76.0516V73.53C497.663 73.1248 497.668 72.4336 498.073 71.8187L504.761 62.2281H498.941C498.583 62.2281 498.297 61.9754 498.297 61.6036Z" fill="#ADB1C7"/>
<path fill-rule="evenodd" clip-rule="evenodd" d="M457.661 77.1289H454.272C453.948 77.105 453.69 76.8619 453.667 76.5521V59.1583C453.667 58.8104 453.957 58.5339 454.32 58.5339H457.48C457.809 58.5482 458.071 58.8008 458.095 59.1154V61.3892H458.157C458.981 59.1917 460.531 58.1669 462.618 58.1669C464.74 58.1669 466.065 59.1917 467.018 61.3892C467.838 59.1917 469.702 58.1669 471.699 58.1669C473.119 58.1669 474.673 58.7532 475.622 60.0688C476.695 61.5322 476.475 63.6581 476.475 65.5219L476.47 76.4997C476.47 76.8476 476.18 77.1289 475.817 77.1289H472.433C472.095 77.105 471.823 76.8333 471.823 76.4997V67.2808C471.823 66.5468 471.89 64.7163 471.728 64.0204C471.475 62.8526 470.717 62.5236 469.735 62.5236C468.915 62.5236 468.057 63.0718 467.709 63.9489C467.361 64.826 467.395 66.2941 467.395 67.2808V76.4997C467.395 76.8476 467.104 77.1289 466.742 77.1289H463.357C463.014 77.105 462.747 76.8333 462.747 76.4997L462.742 67.2808C462.742 65.3408 463.062 62.4855 460.655 62.4855C458.219 62.4855 458.314 65.2693 458.314 67.2808V76.4997C458.314 76.8476 458.023 77.1289 457.661 77.1289Z" fill="#ADB1C7"/>
<path fill-rule="evenodd" clip-rule="evenodd" d="M520.3 58.1669C525.329 58.1669 528.051 62.4855 528.051 67.9768C528.051 73.2821 525.043 77.4911 520.3 77.4911C515.362 77.4911 512.674 73.1725 512.674 67.7909C512.674 62.3759 515.395 58.1669 520.3 58.1669ZM520.329 61.7181C517.831 61.7181 517.674 65.1215 517.674 67.2427C517.674 69.3686 517.641 73.9066 520.3 73.9066C522.927 73.9066 523.051 70.2457 523.051 68.0149C523.051 66.5468 522.989 64.7926 522.545 63.4007C522.164 62.19 521.406 61.7181 520.329 61.7181Z" fill="#ADB1C7"/>
<path fill-rule="evenodd" clip-rule="evenodd" d="M534.572 77.1289H531.197C530.859 77.105 530.587 76.8333 530.587 76.4997L530.582 59.1011C530.611 58.7818 530.892 58.5339 531.235 58.5339H534.377C534.672 58.5482 534.915 58.7484 534.982 59.0201V61.6799H535.044C535.992 59.3013 537.322 58.1669 539.663 58.1669C541.183 58.1669 542.666 58.715 543.619 60.2166C544.506 61.6084 544.506 63.9489 544.506 65.6315V76.5807C544.468 76.8858 544.186 77.1289 543.853 77.1289H540.454C540.144 77.105 539.887 76.8762 539.854 76.5807V67.1331C539.854 65.2311 540.073 62.4474 537.732 62.4474C536.908 62.4474 536.15 63.0003 535.773 63.8393C535.297 64.9022 535.235 65.9605 535.235 67.1331V76.4997C535.23 76.8476 534.934 77.1289 534.572 77.1289Z" fill="#ADB1C7"/>
<path fill-rule="evenodd" clip-rule="evenodd" d="M489.417 68.8204C489.417 70.1408 489.45 71.2419 488.783 72.4146C488.244 73.3679 487.386 73.9542 486.438 73.9542C485.136 73.9542 484.374 72.9627 484.374 71.4993C484.374 68.6107 486.962 68.0864 489.417 68.0864V68.8204ZM492.835 77.0812C492.611 77.2814 492.286 77.2957 492.034 77.1622C490.909 76.2279 490.704 75.7942 490.089 74.9028C488.23 76.7999 486.91 77.3672 484.502 77.3672C481.647 77.3672 479.431 75.6083 479.431 72.0857C479.431 69.3353 480.918 67.4619 483.044 66.5467C484.884 65.7364 487.453 65.5934 489.417 65.3693V64.9308C489.417 64.1252 489.479 63.1719 489.002 62.476C488.592 61.8515 487.801 61.5941 487.1 61.5941C485.809 61.5941 484.66 62.2567 484.379 63.6295C484.321 63.9346 484.097 64.2349 483.787 64.2492L480.503 63.8964C480.227 63.8345 479.917 63.6104 479.998 63.1862C480.751 59.2012 484.355 58 487.577 58C489.226 58 491.381 58.4385 492.682 59.6874C494.331 61.2271 494.174 63.2815 494.174 65.5171V70.7986C494.174 72.386 494.832 73.0819 495.452 73.9399C495.666 74.245 495.714 74.612 495.437 74.8408C494.746 75.4176 493.516 76.4901 492.839 77.0907L492.835 77.0812Z" fill="#ADB1C7"/>
<path fill-rule="evenodd" clip-rule="evenodd" d="M444.986 68.8204C444.986 70.1408 445.02 71.2419 444.352 72.4145C443.814 73.3679 442.96 73.9542 442.007 73.9542C440.706 73.9542 439.948 72.9627 439.948 71.4993C439.948 68.6107 442.536 68.0864 444.986 68.0864V68.8204ZM448.404 77.0812C448.18 77.2814 447.856 77.2957 447.603 77.1622C446.478 76.2279 446.278 75.7941 445.658 74.9028C443.799 76.7999 442.484 77.3672 440.072 77.3672C437.221 77.3672 435 75.6082 435 72.0856C435 69.3352 436.492 67.4619 438.613 66.5467C440.453 65.7364 443.022 65.5934 444.986 65.3693V64.9308C444.986 64.1252 445.048 63.1719 444.576 62.4759C444.162 61.8515 443.37 61.5941 442.674 61.5941C441.383 61.5941 440.229 62.2567 439.948 63.6295C439.891 63.9346 439.667 64.2349 439.362 64.2492L436.073 63.8964C435.796 63.8345 435.491 63.6104 435.567 63.1862C436.325 59.2012 439.924 58 443.146 58C444.796 58 446.95 58.4385 448.251 59.6874C449.901 61.2271 449.743 63.2815 449.743 65.5171V70.7986C449.743 72.3859 450.401 73.0819 451.021 73.9399C451.24 74.245 451.288 74.612 451.011 74.8408C450.32 75.4176 449.09 76.4901 448.414 77.0907L448.404 77.0812Z" fill="#ADB1C7"/>
<path fill-rule="evenodd" clip-rule="evenodd" d="M660.71 57H641.928C641.152 57 640.408 57.3065 639.859 57.8522C639.31 58.3979 639.001 59.1382 639 59.9104V78.5741C638.998 78.957 639.072 79.3366 639.218 79.691C639.363 80.0455 639.578 80.3679 639.849 80.6399C640.119 80.9118 640.442 81.128 640.796 81.276C641.151 81.4239 641.532 81.5009 641.917 81.5024H660.713C661.097 81.5019 661.478 81.4261 661.833 81.2792C662.188 81.1323 662.511 80.9172 662.783 80.6462C663.054 80.3752 663.27 80.0536 663.416 79.6997C663.563 79.3459 663.638 78.9667 663.638 78.584V59.9104C663.637 59.1383 663.328 58.3982 662.779 57.8525C662.23 57.3069 661.486 57.0002 660.71 57V57ZM649.626 74.6485C649.625 74.9068 649.521 75.1541 649.336 75.336C649.152 75.518 648.903 75.6196 648.643 75.6186H644.534C644.277 75.6174 644.03 75.5146 643.848 75.3328C643.666 75.151 643.564 74.905 643.564 74.6485V62.4913C643.564 62.2347 643.666 61.9885 643.848 61.8067C644.03 61.6248 644.277 61.5222 644.534 61.5212H648.639C648.898 61.5222 649.145 61.6247 649.328 61.8064C649.51 61.9881 649.613 62.2343 649.614 62.4913L649.626 74.6485ZM659.096 69.0665C659.096 69.3238 658.994 69.5706 658.811 69.7526C658.628 69.9346 658.38 70.0369 658.122 70.0371H654.005C653.747 70.0361 653.5 69.9335 653.317 69.7517C653.134 69.5698 653.031 69.3235 653.031 69.0665V62.4913C653.032 62.2343 653.135 61.9881 653.317 61.8064C653.5 61.6247 653.747 61.5222 654.005 61.5212H658.11C658.368 61.522 658.615 61.6246 658.797 61.8065C658.979 61.9883 659.081 62.2346 659.081 62.4913L659.096 69.0665Z" fill="#ADB1C7"/>
<path d="M690.047 58.7953V63.5336H684.407V81.5026H678.969V63.5336H673.329V58.7953H690.047Z" fill="#ADB1C7"/>
<path d="M696.968 81.5026H691.94V63.8268H696.968V67.211C697.923 64.8266 699.451 63.4085 702.17 63.5815V68.8175C698.618 68.5426 696.968 69.4065 696.968 72.2388V81.5026Z" fill="#ADB1C7"/>
<path d="M729.638 81.6401C726.343 81.6401 724.27 80.0688 724.27 76.3528V57H729.334V75.66C729.334 76.7321 730.042 77.1133 730.913 77.1133C731.163 77.1181 731.414 77.1061 731.663 77.0776V81.4337C731.001 81.595 730.319 81.6645 729.638 81.6401Z" fill="#ADB1C7"/>
<path d="M740.201 81.6401C736.906 81.6401 734.83 80.0688 734.83 76.3528V57H739.893V75.66C739.893 76.7321 740.607 77.1133 741.491 77.1133C741.741 77.1185 741.99 77.1066 742.238 77.0776V81.4337C741.572 81.5964 740.886 81.6659 740.201 81.6401Z" fill="#ADB1C7"/>
<path d="M744.663 72.6572C744.663 67.1974 747.821 63.4617 753.258 63.4617C758.696 63.4617 761.788 67.1852 761.788 72.6572C761.788 78.1292 758.662 81.9167 753.259 81.9167C747.857 81.9167 744.663 78.0813 744.663 72.6572ZM749.593 72.6572C749.593 75.3161 750.714 77.4256 753.259 77.4256C755.805 77.4256 756.863 75.3161 756.863 72.6572C756.863 69.9983 755.777 67.9433 753.259 67.9433C750.742 67.9433 749.593 69.9941 749.593 72.6572Z" fill="#ADB1C7"/>
<path d="M708.957 74.2553C710.365 74.4091 711.78 74.4917 713.196 74.5026C717.048 74.5026 720.3 73.4737 720.3 69.7619C720.3 66.1596 716.957 63.4532 712.936 63.4532C707.521 63.4532 704.052 67.362 704.052 72.8218C704.052 78.4898 707.043 81.8556 713.804 81.8556C715.81 81.872 717.801 81.5178 719.677 80.8112V76.5768C717.94 77.1305 715.987 77.6804 713.982 77.6804C711.29 77.6809 709.414 76.8005 708.957 74.2553ZM712.833 67.3107C714.258 67.3107 715.402 68.2729 715.402 69.5889C715.402 71.281 713.608 71.8122 711.539 71.8122C710.659 71.8079 709.78 71.7383 708.91 71.6039C708.976 70.7786 709.214 69.9759 709.609 69.2472C709.926 68.67 710.392 68.1871 710.958 67.8485C711.525 67.5098 712.172 67.3274 712.833 67.3201V67.3107Z" fill="#ADB1C7"/>
<path d="M901.238 71.6501C901.238 76.9734 897.073 80.896 891.963 80.896C886.852 80.896 882.688 76.9734 882.688 71.6501C882.688 66.2894 886.852 62.4043 891.963 62.4043C897.073 62.4043 901.238 66.2894 901.238 71.6501ZM897.177 71.6501C897.177 68.3236 894.764 66.0476 891.963 66.0476C889.161 66.0476 886.748 68.3236 886.748 71.6501C886.748 74.9433 889.161 77.2527 891.963 77.2527C894.764 77.2527 897.177 74.9391 897.177 71.6501Z" fill="#ADB1C7"/>
<path d="M921.247 71.6501C921.247 76.9734 917.082 80.896 911.972 80.896C906.861 80.896 902.697 76.9734 902.697 71.6501C902.697 66.2936 906.861 62.4043 911.972 62.4043C917.082 62.4043 921.247 66.2894 921.247 71.6501ZM917.187 71.6501C917.187 68.3236 914.773 66.0476 911.972 66.0476C909.171 66.0476 906.757 68.3236 906.757 71.6501C906.757 74.9433 909.171 77.2527 911.972 77.2527C914.773 77.2527 917.187 74.9391 917.187 71.6501Z" fill="#ADB1C7"/>
<path d="M940.422 62.9629V79.562C940.422 86.3901 936.396 89.1789 931.635 89.1789C927.154 89.1789 924.457 86.1817 923.44 83.7306L926.975 82.2591C927.604 83.7639 929.147 85.5397 931.631 85.5397C934.678 85.5397 936.567 83.6597 936.567 80.1206V78.7909H936.425C935.516 79.9122 933.765 80.8918 931.556 80.8918C926.933 80.8918 922.698 76.865 922.698 71.6835C922.698 66.4645 926.933 62.4043 931.556 62.4043C933.761 62.4043 935.512 63.3839 936.425 64.4719H936.567V62.9671H940.422V62.9629ZM936.854 71.6835C936.854 68.4278 934.682 66.0476 931.919 66.0476C929.117 66.0476 926.77 68.4278 926.77 71.6835C926.77 74.9058 929.117 77.2527 931.919 77.2527C934.682 77.2527 936.854 74.9058 936.854 71.6835Z" fill="#ADB1C7"/>
<path d="M946.779 53.2336V80.3292H942.819V53.2336H946.779Z" fill="#ADB1C7"/>
<path d="M962.211 74.6932L965.363 76.7941C964.346 78.299 961.895 80.8918 957.659 80.8918C952.407 80.8918 948.484 76.8317 948.484 71.646C948.484 66.1477 952.44 62.4001 957.205 62.4001C962.003 62.4001 964.35 66.2185 965.117 68.282L965.538 69.3324L953.178 74.4514C954.124 76.3064 955.596 77.2527 957.659 77.2527C959.727 77.2527 961.161 76.2356 962.211 74.6932ZM952.511 71.3667L960.773 67.936C960.319 66.7813 958.952 65.9768 957.343 65.9768C955.279 65.9768 952.407 67.7984 952.511 71.3667Z" fill="#ADB1C7"/>
<path d="M867.697 69.2447V65.3221H880.916C881.045 66.0058 881.112 66.8145 881.112 67.6899C881.112 70.6329 880.307 74.272 877.714 76.8648C875.193 79.491 871.97 80.8917 867.702 80.8917C859.79 80.8917 853.137 74.4471 853.137 66.5352C853.137 58.6233 859.79 52.1787 867.702 52.1787C872.079 52.1787 875.197 53.8962 877.539 56.1347L874.771 58.9026C873.092 57.3269 870.816 56.1013 867.697 56.1013C861.92 56.1013 857.401 60.7576 857.401 66.5352C857.401 72.3128 861.92 76.9691 867.697 76.9691C871.445 76.9691 873.579 75.4642 874.947 74.0969C876.055 72.9881 876.785 71.4041 877.073 69.2406L867.697 69.2447Z" fill="#ADB1C7"/>
<path d="M223.942 156.821C225.659 156.821 226.32 157.902 226.413 158.844C226.414 158.858 226.412 158.872 226.408 158.886C226.404 158.899 226.397 158.912 226.387 158.922C226.378 158.933 226.366 158.941 226.354 158.947C226.341 158.953 226.327 158.956 226.313 158.956H221.599C221.585 158.956 221.571 158.952 221.558 158.946C221.545 158.941 221.534 158.932 221.525 158.921C221.515 158.91 221.508 158.897 221.504 158.883C221.5 158.87 221.499 158.855 221.501 158.841C221.628 157.921 222.42 156.821 223.942 156.821ZM226.526 162.807C226.495 162.807 226.464 162.814 226.436 162.829C226.408 162.844 226.384 162.865 226.365 162.891C225.94 163.507 225.248 163.888 224.215 163.888C222.791 163.888 221.556 162.925 221.422 161.56C221.421 161.546 221.423 161.531 221.427 161.518C221.431 161.504 221.438 161.492 221.448 161.481C221.457 161.471 221.468 161.463 221.481 161.457C221.493 161.451 221.507 161.448 221.521 161.448H229.991C230.015 161.371 230.065 160.787 230.065 160.252C230.065 156.186 227.71 153.771 223.892 153.771C220.695 153.771 217.744 156.363 217.744 160.431C217.744 164.676 220.769 167.167 224.165 167.167C227.235 167.167 229.18 165.399 229.811 163.262C229.814 163.249 229.835 163.169 229.859 163.052C229.865 163.023 229.864 162.992 229.857 162.963C229.85 162.933 229.837 162.906 229.818 162.882C229.8 162.859 229.776 162.84 229.75 162.827C229.723 162.814 229.694 162.807 229.665 162.807H226.526ZM234.016 160.366L230 154.472C229.979 154.442 229.967 154.406 229.965 154.369C229.962 154.331 229.97 154.294 229.987 154.261C230.004 154.228 230.029 154.201 230.06 154.181C230.091 154.162 230.127 154.152 230.163 154.152H234.111C234.179 154.152 234.241 154.186 234.278 154.244L236.342 157.478C236.381 157.54 236.469 157.539 236.508 157.477L238.524 154.246C238.542 154.217 238.567 154.194 238.596 154.177C238.625 154.161 238.658 154.152 238.691 154.152H242.413C242.574 154.152 242.668 154.338 242.576 154.473L238.613 160.212C238.59 160.246 238.577 160.287 238.577 160.329C238.577 160.37 238.589 160.411 238.612 160.446C239.91 162.346 241.392 164.542 242.722 166.465C242.816 166.6 242.722 166.785 242.561 166.785H238.64C238.607 166.785 238.574 166.777 238.545 166.761C238.517 166.745 238.492 166.722 238.474 166.694L236.334 163.354C236.325 163.34 236.313 163.329 236.298 163.321C236.284 163.313 236.268 163.309 236.251 163.309C236.235 163.309 236.219 163.313 236.205 163.321C236.19 163.329 236.178 163.34 236.169 163.354C235.528 164.335 234.69 165.7 234.055 166.694C234.037 166.722 234.012 166.745 233.983 166.761C233.954 166.777 233.922 166.785 233.889 166.785H230.233C230.197 166.785 230.162 166.775 230.131 166.756C230.1 166.737 230.075 166.709 230.058 166.677C230.041 166.644 230.033 166.607 230.036 166.57C230.038 166.532 230.05 166.497 230.071 166.466L234.017 160.597C234.04 160.563 234.052 160.523 234.052 160.482C234.052 160.44 234.04 160.4 234.017 160.366H234.016ZM212.737 166.582V148.586C212.737 148.473 212.826 148.382 212.935 148.382H216.307C216.416 148.382 216.505 148.473 216.505 148.586V166.582C216.505 166.694 216.416 166.785 216.307 166.785H212.935C212.909 166.785 212.884 166.78 212.86 166.77C212.836 166.76 212.814 166.745 212.795 166.726C212.777 166.707 212.762 166.685 212.752 166.66C212.742 166.635 212.737 166.609 212.737 166.582ZM207.184 166.582V148.586C207.184 148.473 207.273 148.382 207.382 148.382H210.754C210.863 148.382 210.952 148.473 210.952 148.586V166.582C210.952 166.694 210.863 166.785 210.754 166.785H207.382C207.356 166.785 207.331 166.78 207.307 166.77C207.283 166.76 207.261 166.745 207.242 166.726C207.224 166.707 207.209 166.685 207.199 166.66C207.189 166.635 207.184 166.609 207.184 166.582ZM198.846 163.811C200.359 163.811 201.647 162.592 201.647 160.456C201.647 158.27 200.383 157.126 198.846 157.126C197.235 157.126 196.02 158.27 196.02 160.456C196.02 162.54 197.284 163.812 198.846 163.812V163.811ZM201.672 165.158C201.127 166.378 199.888 167.141 198.35 167.141C194.73 167.141 192.227 164.32 192.227 160.431C192.227 156.669 194.582 153.77 198.226 153.77C200.432 153.77 201.399 155.016 201.647 155.601V154.355C201.647 154.243 201.736 154.152 201.846 154.152H205.093C205.202 154.152 205.291 154.243 205.291 154.356V166.582C205.291 166.694 205.202 166.785 205.093 166.785H201.848C201.822 166.785 201.796 166.78 201.772 166.769C201.748 166.759 201.726 166.744 201.707 166.724C201.689 166.705 201.674 166.682 201.665 166.658C201.655 166.633 201.65 166.606 201.65 166.579C201.656 166.12 201.672 165.058 201.672 165.158ZM184.186 154.292L186.444 161.334C186.475 161.43 186.607 161.426 186.634 161.33L188.563 154.301C188.575 154.258 188.6 154.22 188.634 154.193C188.669 154.166 188.711 154.152 188.754 154.152H192.028C192.162 154.152 192.257 154.285 192.218 154.416L188.523 166.642C188.51 166.684 188.485 166.72 188.451 166.746C188.417 166.772 188.376 166.786 188.333 166.786H184.879C184.837 166.786 184.797 166.772 184.763 166.747C184.73 166.722 184.704 166.687 184.691 166.647L182.154 158.915C182.123 158.822 181.995 158.823 181.966 158.915L179.476 166.645C179.463 166.686 179.437 166.721 179.404 166.746C179.37 166.771 179.33 166.785 179.288 166.785H175.759C175.717 166.785 175.676 166.771 175.642 166.746C175.608 166.72 175.583 166.684 175.57 166.643L171.827 154.416C171.817 154.386 171.815 154.354 171.82 154.322C171.826 154.29 171.838 154.261 171.856 154.235C171.875 154.209 171.899 154.188 171.926 154.174C171.954 154.159 171.985 154.152 172.016 154.152H175.513C175.602 154.152 175.68 154.213 175.704 154.301L177.633 161.307C177.66 161.403 177.792 161.406 177.823 161.311L180.105 154.292C180.118 154.251 180.143 154.216 180.177 154.191C180.211 154.166 180.252 154.152 180.293 154.152H183.998C184.083 154.152 184.16 154.208 184.186 154.292ZM170.804 157.715C170.804 157.745 170.798 157.774 170.786 157.801C170.773 157.828 170.756 157.852 170.734 157.871C170.711 157.89 170.686 157.904 170.658 157.912C170.63 157.92 170.601 157.921 170.572 157.916C170.256 157.861 169.935 157.835 169.614 157.838C168.101 157.838 166.738 158.753 166.738 161.269V166.582C166.738 166.694 166.65 166.785 166.541 166.785H163.169C163.143 166.785 163.117 166.78 163.093 166.77C163.069 166.76 163.047 166.745 163.029 166.726C163.011 166.707 162.996 166.685 162.986 166.66C162.976 166.635 162.971 166.609 162.97 166.582V154.356C162.97 154.244 163.059 154.152 163.169 154.152H166.416C166.526 154.152 166.614 154.243 166.614 154.356V155.855C167.259 154.432 168.821 154.025 169.813 154.025C170.114 154.025 170.415 154.059 170.65 154.111C170.741 154.132 170.804 154.215 170.804 154.31V157.715ZM157.343 166.582V154.356C157.343 154.244 157.432 154.152 157.542 154.152H160.913C161.023 154.152 161.112 154.243 161.112 154.356V166.582C161.112 166.694 161.023 166.785 160.913 166.785H157.542C157.516 166.785 157.49 166.78 157.466 166.77C157.442 166.76 157.42 166.745 157.402 166.726C157.383 166.707 157.368 166.685 157.358 166.66C157.348 166.635 157.343 166.609 157.343 166.582ZM159.203 148.026C160.442 148.026 161.434 149.043 161.434 150.289C161.434 151.534 160.442 152.551 159.203 152.551C158.013 152.551 157.021 151.534 157.021 150.289C157.021 149.043 158.013 148.026 159.203 148.026ZM145.336 159.464H149.321C149.389 159.464 149.437 159.396 149.414 159.329L147.447 153.511C147.44 153.491 147.427 153.473 147.411 153.461C147.394 153.448 147.374 153.442 147.353 153.442C147.332 153.441 147.312 153.448 147.295 153.46C147.278 153.473 147.266 153.49 147.259 153.51L145.244 159.329C145.221 159.395 145.269 159.465 145.337 159.465L145.336 159.464ZM150.56 163.125H144.047C144.006 163.125 143.966 163.138 143.933 163.162C143.9 163.187 143.875 163.221 143.861 163.261L142.69 166.65C142.676 166.69 142.651 166.724 142.617 166.748C142.584 166.773 142.544 166.786 142.503 166.786H138.815C138.783 166.786 138.751 166.778 138.722 166.763C138.694 166.748 138.669 166.725 138.651 166.698C138.633 166.671 138.621 166.64 138.617 166.607C138.613 166.574 138.617 166.541 138.628 166.51L145.098 148.895C145.113 148.856 145.138 148.823 145.171 148.799C145.204 148.776 145.243 148.763 145.284 148.763H149.546C149.628 148.763 149.703 148.816 149.731 148.896L156.128 166.511C156.139 166.542 156.143 166.575 156.139 166.607C156.135 166.64 156.123 166.671 156.105 166.698C156.086 166.725 156.062 166.747 156.034 166.762C156.005 166.777 155.974 166.785 155.942 166.785H152.104C152.063 166.785 152.023 166.772 151.99 166.747C151.956 166.723 151.931 166.689 151.917 166.649L150.746 163.261C150.732 163.221 150.707 163.187 150.674 163.163C150.64 163.138 150.601 163.125 150.56 163.125Z" fill="#ADB1C7"/>
<path fill-rule="evenodd" clip-rule="evenodd" d="M133.853 155.524C134.335 156.008 134.67 156.626 134.816 157.303C134.961 157.979 134.912 158.685 134.673 159.333L132.852 164.425C132.374 165.762 131.285 166.796 129.939 167.066C129.266 167.205 128.568 167.152 127.922 166.915C127.275 166.677 126.704 166.263 126.268 165.716L115.35 152.251C115.323 152.218 115.288 152.192 115.248 152.178C115.208 152.163 115.166 152.159 115.124 152.166C115.083 152.174 115.044 152.193 115.012 152.22C114.979 152.248 114.955 152.284 114.94 152.325L111.388 162.215C111.314 162.42 111.51 162.618 111.704 162.536L116.063 160.704C116.309 160.601 116.572 160.552 116.837 160.559C117.102 160.567 117.363 160.63 117.603 160.746C117.843 160.862 118.057 161.028 118.232 161.233C118.407 161.438 118.539 161.678 118.62 161.938C118.942 162.955 118.4 164.053 117.447 164.454L111.753 166.847C110.698 167.29 109.487 167.212 108.538 166.56C107.891 166.115 107.408 165.458 107.168 164.696C106.929 163.934 106.945 163.11 107.216 162.359L111.413 150.677C111.91 149.293 113.043 148.315 114.443 148.063C115.125 147.937 115.827 148.001 116.477 148.247C117.127 148.493 117.702 148.914 118.142 149.464L124.408 157.195L130.172 154.771C131.453 154.233 132.864 154.521 133.853 155.524ZM130.529 159.407C130.601 159.202 130.406 159.004 130.212 159.087L127.027 160.425L128.937 162.782C128.964 162.815 129 162.841 129.039 162.856C129.079 162.871 129.122 162.875 129.164 162.867C129.206 162.86 129.245 162.841 129.277 162.813C129.31 162.785 129.334 162.748 129.349 162.707L130.528 159.407H130.529Z" fill="#ADB1C7"/>
<path d="M350.151 145.884C350.125 145.707 349.974 145.606 349.847 145.606C349.721 145.606 347.218 145.555 347.218 145.555C347.218 145.555 345.12 143.533 344.918 143.305C344.715 143.103 344.311 143.154 344.159 143.204C344.159 143.204 343.755 143.33 343.097 143.533C342.996 143.179 342.819 142.749 342.592 142.294C341.859 140.878 340.746 140.12 339.432 140.12C339.331 140.12 339.255 140.12 339.154 140.145C339.103 140.095 339.078 140.044 339.027 140.019C338.446 139.412 337.713 139.109 336.828 139.134C335.134 139.185 333.441 140.423 332.05 142.597C331.09 144.139 330.356 146.061 330.129 147.552C328.182 148.159 326.817 148.589 326.767 148.589C325.781 148.892 325.756 148.917 325.629 149.853C325.579 150.561 323 170.506 323 170.506L344.64 174.248L354.018 171.922C353.993 171.922 350.176 146.061 350.151 145.884ZM342.01 143.887C341.505 144.038 340.949 144.215 340.342 144.418C340.342 143.558 340.216 142.345 339.836 141.333C341.126 141.536 341.758 143.002 342.01 143.887ZM339.204 144.746C338.067 145.1 336.828 145.479 335.589 145.858C335.943 144.519 336.601 143.204 337.41 142.319C337.713 141.991 338.143 141.637 338.623 141.434C339.129 142.42 339.23 143.811 339.204 144.746ZM336.879 140.272C337.283 140.272 337.612 140.347 337.89 140.55C337.435 140.777 336.98 141.131 336.575 141.586C335.488 142.749 334.654 144.544 334.325 146.288C333.289 146.617 332.278 146.92 331.368 147.198C331.974 144.443 334.275 140.347 336.879 140.272Z" fill="#ADB1C7"/>
<path d="M349.847 145.606C349.721 145.606 347.218 145.555 347.218 145.555C347.218 145.555 345.12 143.533 344.918 143.305C344.842 143.23 344.741 143.179 344.64 143.179V174.248L354.018 171.922C354.018 171.922 350.201 146.061 350.176 145.884C350.125 145.707 349.974 145.606 349.847 145.606Z" fill="#ADB1C7"/>
<path d="M339.432 150.434L338.345 154.504C338.345 154.504 337.132 153.948 335.691 154.049C333.567 154.175 333.567 155.515 333.567 155.844C333.694 157.664 338.472 158.068 338.75 162.341C338.952 165.703 336.98 168.003 334.098 168.18C330.66 168.357 328.764 166.335 328.764 166.335L329.497 163.226C329.497 163.226 331.419 164.667 332.935 164.565C333.921 164.515 334.301 163.681 334.25 163.124C334.098 160.748 330.205 160.9 329.952 156.981C329.75 153.695 331.899 150.383 336.652 150.08C338.497 149.954 339.432 150.434 339.432 150.434Z" fill="white"/>
<path d="M366.709 159.105C365.622 158.524 365.066 158.018 365.066 157.336C365.066 156.476 365.85 155.92 367.063 155.92C368.479 155.92 369.743 156.502 369.743 156.502L370.729 153.468C370.729 153.468 369.819 152.76 367.139 152.76C363.398 152.76 360.794 154.909 360.794 157.917C360.794 159.636 362.007 160.925 363.625 161.861C364.94 162.594 365.395 163.125 365.395 163.909C365.395 164.717 364.737 165.375 363.524 165.375C361.729 165.375 360.01 164.439 360.01 164.439L358.948 167.473C358.948 167.473 360.516 168.535 363.17 168.535C367.013 168.535 369.793 166.639 369.793 163.226C369.768 161.381 368.378 160.066 366.709 159.105Z" fill="#ADB1C7"/>
<path d="M382.029 152.71C380.133 152.71 378.641 153.62 377.504 154.985L377.453 154.96L379.096 146.364H374.824L370.653 168.257H374.925L376.341 160.774C376.897 157.943 378.363 156.198 379.728 156.198C380.689 156.198 381.068 156.856 381.068 157.791C381.068 158.372 381.018 159.106 380.891 159.687L379.273 168.257H383.546L385.214 159.409C385.391 158.474 385.517 157.361 385.517 156.603C385.543 154.176 384.279 152.71 382.029 152.71Z" fill="#ADB1C7"/>
<path d="M395.225 152.709C390.067 152.709 386.655 157.361 386.655 162.543C386.655 165.855 388.702 168.535 392.545 168.535C397.601 168.535 401.014 164.009 401.014 158.701C401.039 155.642 399.244 152.709 395.225 152.709ZM393.126 165.273C391.66 165.273 391.053 164.035 391.053 162.467C391.053 160.015 392.317 156.021 394.643 156.021C396.16 156.021 396.666 157.336 396.666 158.6C396.666 161.229 395.376 165.273 393.126 165.273Z" fill="#ADB1C7"/>
<path d="M411.986 152.709C409.104 152.709 407.461 155.263 407.461 155.263H407.41L407.663 152.962H403.871C403.694 154.504 403.34 156.881 403.011 158.65L400.028 174.324H404.301L405.489 167.978H405.59C405.59 167.978 406.475 168.535 408.093 168.535C413.123 168.535 416.41 163.377 416.41 158.17C416.41 155.288 415.12 152.709 411.986 152.709ZM407.89 165.324C406.778 165.324 406.121 164.692 406.121 164.692L406.829 160.698C407.334 158.018 408.725 156.249 410.216 156.249C411.531 156.249 411.935 157.462 411.935 158.6C411.935 161.38 410.292 165.324 407.89 165.324Z" fill="#ADB1C7"/>
<path d="M422.527 146.567C421.162 146.567 420.075 147.654 420.075 149.044C420.075 150.308 420.883 151.193 422.097 151.193H422.147C423.487 151.193 424.625 150.283 424.65 148.715C424.65 147.477 423.816 146.567 422.527 146.567Z" fill="#ADB1C7"/>
<path d="M416.536 168.231H420.808L423.715 153.063H419.418L416.536 168.231Z" fill="#ADB1C7"/>
<path d="M434.61 153.038H431.627L431.779 152.331C432.032 150.864 432.891 149.575 434.332 149.575C435.091 149.575 435.698 149.803 435.698 149.803L436.532 146.44C436.532 146.44 435.799 146.061 434.206 146.061C432.689 146.061 431.172 146.491 430.01 147.477C428.543 148.716 427.861 150.51 427.532 152.331L427.406 153.038H425.409L424.777 156.274H426.774L424.499 168.257H428.771L431.046 156.274H434.004L434.61 153.038Z" fill="#ADB1C7"/>
<path d="M444.924 153.063C444.924 153.063 442.245 159.813 441.057 163.504H441.006C440.93 162.316 439.944 153.063 439.944 153.063H435.444L438.023 166.993C438.074 167.296 438.048 167.498 437.922 167.7C437.416 168.661 436.582 169.596 435.596 170.279C434.787 170.86 433.877 171.24 433.169 171.492L434.357 175.133C435.217 174.956 437.037 174.223 438.554 172.807C440.5 170.987 442.321 168.156 444.166 164.313L449.399 153.063H444.924Z" fill="#ADB1C7"/>
<path d="M571.6 174.427L575.365 176.343L584.604 157.932L575.365 139.588L571.6 141.505V174.427Z" fill="#CFD1DE"/>
<path d="M575.365 139.589L594.94 144.311L604.179 158L594.94 171.552L575.365 176.343L575.365 139.589Z" fill="#989CB0"/>
<path d="M617.869 158.411L614.515 139.589L594.94 144.311V171.552L614.515 176.343L617.869 158.411Z" fill="#CFD1DE"/>
<path d="M614.515 176.343V139.588L618.279 141.505V174.427L614.515 176.343Z" fill="#989CB0"/>
<path d="M601.716 158L594.94 150.882L586.384 151.977V164.023L594.94 165.118L601.716 158Z" fill="#CFD1DE"/>
<path d="M594.94 129.801L603.496 146.159L594.94 147.734L586.384 146.16L594.94 129.801Z" fill="#ADB1C7"/>
<path d="M594.94 186.2L603.496 169.841L594.94 168.267L586.384 169.841L594.94 186.2Z" fill="#ACAEBA"/>
<path d="M603.496 134.113V146.159L594.94 144.038V129.8L603.496 134.113Z" fill="#989CB0"/>
<path d="M586.384 134.113V146.159L594.94 144.038V129.8L586.384 134.113Z" fill="#CFD1DE"/>
<path d="M594.94 171.963V186.2L603.496 181.888V169.841L594.94 171.963Z" fill="#989CB0"/>
<path d="M594.94 171.963V186.2L586.384 181.888V169.841L594.94 171.963Z" fill="#CFD1DE"/>
<path d="M603.496 151.977V164.024L594.94 165.118V150.882L603.496 151.977Z" fill="#989CB0"/>
<path d="M787.926 186.786C771.736 186.786 758.783 173.834 758.783 157.643C758.783 141.452 771.736 128.5 787.926 128.5H822.074C838.264 128.5 851.217 141.452 851.217 157.643C851.217 173.834 838.264 186.786 822.074 186.786H787.926ZM821.191 176.483C831.788 176.483 840.03 167.946 840.03 157.643C840.03 147.046 831.494 138.803 821.191 138.803H788.809C778.212 138.803 769.97 147.34 769.97 157.643C769.97 167.946 778.506 176.483 788.809 176.483H821.191Z" fill="#ADB1C7"/>
</svg>
