<svg width="143" height="29" viewBox="0 0 143 29" fill="none" xmlns="http://www.w3.org/2000/svg">
<path d="M29.7701 5.55016C29.1301 6.20016 28.4101 6.78016 27.7101 7.38016C26.1701 8.71016 24.6301 10.0502 23.0801 11.3702C21.8401 12.4202 21.0101 12.3702 19.8601 11.1902C18.1801 9.48016 16.5101 7.76016 14.8301 6.05016C13.6401 4.83016 13.2301 4.83016 11.9401 5.99016C9.21006 8.46016 6.48006 10.9202 3.76006 13.3902C3.17006 13.9102 2.55006 14.3102 1.72006 14.1202C0.0600578 13.7402 -0.549942 11.8502 0.580058 10.5502C1.00006 10.0702 1.49006 9.65016 1.97006 9.22016C4.69006 6.75016 7.42006 4.29016 10.1501 1.82016C10.4701 1.53016 10.8001 1.24016 11.1401 0.960156C12.7601 -0.369844 14.3701 -0.329844 15.8401 1.14016C17.4501 2.75016 19.0301 4.40016 20.6201 6.03016C20.9001 6.31016 21.1101 6.66016 21.5601 6.87016C22.7701 6.02016 23.8501 4.95016 25.0101 3.98016C25.6601 3.45016 26.2701 2.87016 26.9401 2.36016C27.8901 1.63016 29.1001 1.73016 29.8601 2.56016C30.6801 3.46016 30.6801 4.64016 29.7701 5.55016Z" fill="white"/>
<path d="M29.44 20.3601C27.92 21.7201 26.36 23.0301 24.81 24.3501C24.21 24.8701 23.62 25.4101 22.99 25.9001C21.69 26.9101 21.01 26.8701 19.87 25.7001C18.25 24.0401 16.66 22.3601 15.05 20.6901C14.89 20.5201 14.72 20.3401 14.55 20.1801C13.76 19.4501 13.16 19.4201 12.35 20.1301C10.56 21.7201 8.78004 23.3301 7.00004 24.9401C5.85004 25.9801 4.71004 27.0501 3.53004 28.0701C2.48004 28.9801 1.29004 28.8701 0.480039 27.8701C-0.189961 27.0301 -0.0899609 25.6601 0.760039 24.8301C1.59004 24.0101 2.45004 23.2401 3.31004 22.4601C5.86004 20.1601 8.42004 17.8701 10.98 15.5701C12.68 14.0501 14.43 14.1101 16.05 15.7701C17.61 17.3701 19.15 18.9901 20.7 20.6001C20.95 20.8601 21.16 21.1601 21.64 21.3501C23.11 20.0801 24.57 18.8301 26.02 17.5801C26.2 17.4301 26.37 17.2601 26.56 17.1101C27.87 16.0201 28.95 16.0301 29.91 17.1301C30.81 18.1601 30.67 19.2701 29.44 20.3601Z" fill="white"/>
<path d="M29.58 13.02C28.24 14.22 26.86 15.37 25.49 16.54C24.64 17.27 23.8 18 22.93 18.71C21.85 19.59 20.96 19.55 19.98 18.55C18.23 16.79 16.52 14.99 14.78 13.23C13.65 12.08 13.27 12.05 12.08 13.12C9.58002 15.36 7.10003 17.63 4.61003 19.88C4.19003 20.26 3.78003 20.64 3.33003 20.96C2.42003 21.6 1.42003 21.55 0.680025 20.87C-0.00997478 20.23 -0.189975 18.95 0.340025 18.1C0.540025 17.77 0.830025 17.47 1.12003 17.21C4.39003 14.26 7.69002 11.36 10.92 8.36999C12.5 6.89999 14.56 6.90999 16.09 8.56999C17.82 10.45 19.63 12.26 21.52 14.21C23.31 12.67 25.01 11.22 26.7 9.75999C27.34 9.20999 28.04 8.88999 28.9 9.19999C30.63 9.80999 31 11.77 29.58 13.02Z" fill="white"/>
<path d="M111.85 13.6003C111.49 11.0803 110.2 9.18025 107.79 8.24025C105.37 7.31025 103.02 7.48025 100.87 9.08025C100.62 9.27025 100.49 9.61025 100 9.62025V3.26025H96.28C96.07 6.21025 96.16 20.9903 96.38 21.9103H99.93C100.17 21.3703 99.88 20.7803 100.19 20.2303C100.44 20.4303 100.62 20.5903 100.8 20.7303C103.92 23.2103 108.61 22.4603 110.78 19.1303C111.89 17.4303 112.12 15.5503 111.85 13.6003ZM104.05 19.0703C101.72 19.0803 100.05 17.3503 100.05 14.9403C100.05 12.5303 101.76 10.7603 104.03 10.7703C106.38 10.7803 108.05 12.5103 108.05 14.9103C108.04 17.3103 106.36 19.0703 104.05 19.0703Z" fill="white"/>
<path d="M48.3601 20.4703C47.8701 20.8803 47.3501 21.2603 46.7401 21.4803C44.0201 22.4803 41.3301 22.4003 38.7501 21.0303C37.1801 20.1903 36.2901 18.8503 36.2101 16.9503H40.1201C40.1201 16.9503 40.2501 17.0303 40.2701 17.0903C40.9801 19.1003 43.3401 19.9103 45.1301 18.7503C46.2901 18.0003 46.3901 16.5103 45.3401 15.5903C44.8801 15.1903 44.3201 14.9703 43.7501 14.8003C42.6801 14.4703 41.6001 14.1803 40.5401 13.8403C39.9301 13.6403 39.3301 13.4303 38.7601 13.1503C35.2401 11.4503 35.7701 7.1203 38.0001 5.4803C39.1701 4.6303 40.4701 4.2303 41.8801 4.0803C43.5901 3.9003 45.2501 4.0503 46.8001 4.7903C48.5401 5.6003 49.6201 6.9303 49.7501 8.9903H45.6601C45.4701 8.2203 45.0601 7.5703 44.2601 7.2403C43.4601 6.9203 42.6401 6.8403 41.8001 7.0603C40.9901 7.2703 40.4501 7.7003 40.2901 8.5503C40.1101 9.4603 40.4701 10.1103 41.2201 10.5803C41.8301 10.9603 42.5301 11.1703 43.2101 11.3903C44.2001 11.7003 45.2001 11.9803 46.1801 12.3003C46.6001 12.4403 47.0001 12.6103 47.4001 12.8003C51.0001 14.4803 50.4801 18.7203 48.3601 20.4703Z" fill="white"/>
<path d="M136.62 7.99998C135.36 7.65998 134.08 7.61998 132.82 7.80998C128.8 8.38998 126.39 11.4 126.46 14.97C126.47 18.38 128.5 21.03 131.78 21.89C133.32 22.3 134.86 22.29 136.4 21.93C139.76 21.15 142.02 18.36 142.06 14.98C142.09 11.6 139.98 8.90998 136.62 7.99998ZM134.13 19.08C131.79 19.09 130.33 17.51 130.32 14.97C130.31 12.44 131.88 10.73 134.21 10.75C136.52 10.76 138.13 12.49 138.14 14.97C138.14 17.4 136.51 19.08 134.13 19.08Z" fill="white"/>
<path d="M93.13 7.98005V21.9301H89.55C89.23 21.4901 89.6 20.9401 89.19 20.4901C88.06 21.4301 86.78 22.0001 85.3 22.1201C82.3 22.3501 79.85 20.8201 79.07 18.1501C78.92 17.6601 78.83 17.1301 78.83 16.6201C78.8 13.7801 78.82 10.9501 78.82 8.03005H82.59V10.6701C82.59 12.3901 82.53 14.1101 82.59 15.8301C82.72 19.0501 85.43 19.5401 87.44 18.8601C88.47 18.5201 89.06 17.7301 89.26 16.6701C89.37 16.1201 89.4 15.5601 89.4 15.0001C89.39 13.0801 89.39 11.1601 89.4 9.24005C89.4 8.85005 89.31 8.44005 89.53 7.99005C90.69 7.90005 91.87 7.94005 93.12 7.99005L93.13 7.98005Z" fill="white"/>
<path d="M62.34 17.2604H66.17C66.13 19.7904 63.15 22.0304 59.65 22.1904C55.46 22.3804 52.18 19.7504 51.82 15.8904C51.42 11.6804 53.84 8.38038 57.73 7.81038C62.04 7.17038 65.52 9.08038 66.29 12.6004H62.33C61.52 10.9704 60.14 10.4804 58.44 10.7704C57.49 10.9304 56.72 11.4604 56.28 12.3304C55.43 14.0404 55.41 15.7804 56.27 17.5104C57.38 19.7304 61.19 19.6304 62.08 17.6804C62.15 17.5404 62.24 17.4204 62.34 17.2604Z" fill="white"/>
<path d="M76.8001 11.2903C76.3501 11.5303 75.9001 11.4003 75.4801 11.4303C73.2601 11.5503 72.2601 12.5003 72.2101 14.7103C72.1701 17.0603 72.2001 19.4203 72.2001 21.9203H68.4401V8.01027H72.0901C72.3201 8.60027 72.0501 9.17027 72.2901 9.71027C74.5201 7.98027 74.8801 7.82027 76.7501 7.78027C76.9001 8.94027 76.8001 10.1103 76.8001 11.2903Z" fill="white"/>
<path d="M124.45 7.99023H120.76V21.8802H124.45V7.99023Z" fill="white"/>
<path d="M118.18 20.0701C118.17 21.2801 117.24 22.1201 115.89 22.1301C114.52 22.1301 113.48 21.1901 113.52 20.0001C113.56 18.8601 114.58 18.0101 115.91 18.0201C117.27 18.0201 118.19 18.8501 118.18 20.0701Z" fill="white"/>
<path d="M124.96 4.24008C124.91 5.41008 123.94 6.20008 122.57 6.19008C121.22 6.18008 120.27 5.32008 120.28 4.13008C120.28 2.98008 121.31 2.08008 122.62 2.08008C123.93 2.08008 125.01 3.02008 124.96 4.24008Z" fill="white"/>
</svg>
