<svg width="181" height="83" viewBox="0 0 181 83" fill="none" xmlns="http://www.w3.org/2000/svg">
<path d="M175.332 75.7215C171.427 77.6458 166.577 77.1296 162.399 76.7609C144.146 75.1503 125.897 68.0692 111.865 56.1433C107.308 52.27 99.9292 43.8578 105.587 37.8323C108.171 35.0809 111.95 34.6949 115.53 34.325C118.015 34.0682 121.626 34.1306 123.564 36.0109C126.461 38.8221 127.178 43.9648 125.944 47.659C124.316 52.5294 119.716 55.9758 115.357 58.2881C112.066 60.0342 108.586 61.1657 104.914 61.8097C96.7472 63.2418 88.165 63.6432 79.9463 62.4789C71.764 61.3198 63.7141 58.6669 56.2852 55.0765C46.7632 50.4746 39.1086 43.6995 31.9915 35.977C25.5842 29.0248 19.8304 21.5133 13.5676 14.4373C12.7454 13.5083 11.874 12.6232 11.0676 11.6805C11.0542 11.6649 10.0774 10.6992 10.5314 10.4492C11.7441 9.78114 14.6049 10.2017 15.8423 10.2261C22.3694 10.3549 28.8642 10.3994 35.3862 9.99276C40.0825 9.69993 44.7673 9.22298 49.4152 8.48735C50.3654 8.33696 47.5246 8.51196 47.3726 8.51814C37.3147 8.92687 27.355 8.07227 17.3572 6.96388C15.5967 6.7687 12.5795 6.42654 10.7669 6.18698C9.22179 5.98279 7.36174 5.40896 5.77774 5.4654C4.73941 5.5024 6.92736 9.98838 7.03362 10.3203C9.13625 16.8875 10.1398 23.8286 11.2373 30.617C12.3891 37.7416 12.8867 44.6897 12.7045 51.8994C12.679 52.9089 11.5783 60.0064 13.1648 60.1464" stroke="#F9D02C" stroke-width="10.2366" stroke-linecap="round"/>
</svg>
