<svg width="36" height="39" viewBox="0 0 36 39" fill="none" xmlns="http://www.w3.org/2000/svg">
<path d="M17.0664 4C16.9327 6.01927 16.6662 8.02839 16.5548 10.0488C16.3312 14.1045 16.4934 18.1722 16.3059 22.2304C16.1073 26.5309 15.406 30.7453 14.8264 35M9.22669 28.0691C9.83099 27.4572 10.4849 26.909 11.1348 26.3469C13.6456 24.1752 16.0707 21.9082 18.5462 19.696C21.798 16.7902 25.1249 14.0057 28.64 11.435M6.98652 14.0815C9.05031 15.002 10.9383 16.4593 12.6971 17.8619C15.9044 20.4197 18.8006 23.4005 21.7055 26.298C23.4185 28.0067 24.9515 29.879 26.6487 31.5977M4 22.2724C8.13964 20.7929 12.7714 22.1221 16.9837 22.4405C21.9726 22.8175 26.9975 22.9025 32 22.9025" stroke="#F9D02C" stroke-width="6.56906" stroke-linecap="round"/>
</svg>
