<svg width="218" height="72" viewBox="0 0 218 72" fill="none" xmlns="http://www.w3.org/2000/svg">
<path d="M66.2184 23.2627C79.0849 17.1472 98.875 14.948 114.98 13.2996C143.315 10.3993 172.629 12.5029 198.104 20.1041C212.605 24.4307 219.154 32.7621 212.228 41.2736C202.058 53.7709 174.232 60.315 152.124 64.2744C137.463 66.9001 122.42 68.109 107.062 68.6427C86.7286 69.3493 66.1643 69.1072 46.1023 67.013C32.2935 65.5715 6.09883 63.4783 3.27161 53.6896C2.0662 49.5161 5.08616 45.0998 8.13249 41.3744C15.0426 32.9239 25.3938 25.3622 38.5817 19.5664C53.9651 12.8058 72.1402 7.68429 91.2565 5.0502C106.746 2.91588 121.953 3.00046 137.756 3.00046" stroke="#F9D02C" stroke-width="5.37259" stroke-linecap="round"/>
</svg>
