<svg width="273" height="143" viewBox="0 0 273 143" fill="none" xmlns="http://www.w3.org/2000/svg">
<path d="M-128.263 136.875C-118.347 139.975 -104.158 138.378 -95.4208 133.147C-85.8177 127.397 -79.5805 115.515 -75.6487 105.434C-73.3347 99.5011 -70.8464 91.1198 -74.3414 85.0814C-79.358 76.4139 -89.6149 92.2961 -90.8965 96.7402C-94.8162 110.332 -78.7113 116.035 -68.2382 117.151C-45.6607 119.558 -24.1844 107.788 -9.53688 91.0816C-3.68102 84.4027 0.5587 76.7123 1.38325 67.76C1.42825 67.2715 1.83588 62.4584 0.149838 62.7653C-7.04195 64.0744 -3.59708 77.1647 -1.47419 80.9921C5.71765 93.9586 21.0332 95.064 34.2816 93.0906C44.2764 91.6018 53.4568 88.3655 61.9716 82.8759C71.8953 76.4781 83.8623 67.9523 89.2605 57.0553C90.7861 53.9757 94.465 41.9431 87.223 44.8744C80.7013 47.5141 81.3177 54.8847 83.0159 60.6824C87.7025 76.6829 103.227 86.792 119.741 82.0993C130.13 79.1473 139.677 70.9328 147.204 63.5347C156.924 53.9815 164.408 42.9295 168.061 29.7279C169.095 25.9914 169.794 22.1118 170.052 18.2414C170.121 17.2098 169.771 14.1476 170.062 15.1398C171.385 19.6559 171.382 24.5386 172.777 29.1116C175.644 38.5078 182.392 47.034 193.097 45.1957C204.441 43.2477 215.931 37.1906 225.91 31.8355C240.462 24.0261 253.953 14.2596 267.652 5.07168" stroke="#F9D02C" stroke-width="9.05452" stroke-linecap="round"/>
</svg>
